<svg xmlns="http://www.w3.org/2000/svg" width="20" height="20" fill="none">
  <path stroke="#000" stroke-linecap="round" stroke-width="2" d="M2.5 10h10"/>
  <path fill="#000" d="M12.5 1.5a1 1 0 1 0 0 2v-2Zm1 2h1v-2h-1v2Zm-1 0h1v-2h-1v2Z"/>
  <path stroke="#000" stroke-linecap="round" stroke-width="2" d="m8.5 6 4 4M8.5 14l4-4"/>
  <mask id="a" fill="#fff">
    <path d="M18.5 5.5a4 4 0 0 0-4-4v2a2 2 0 0 1 2 2h2Z"/>
  </mask>
  <path stroke="#000" stroke-linejoin="round" stroke-width="4" d="M18.5 5.5a4 4 0 0 0-4-4v2a2 2 0 0 1 2 2h2Z" mask="url(#a)"/>
  <path fill="#000" d="M12.5 18.5a1 1 0 1 1 0-2v2Zm1-2h1v2h-1v-2Zm-1 0h1v2h-1v-2Z"/>
  <mask id="b" fill="#fff">
    <path d="M18.5 14.5a4 4 0 0 1-4 4v-2a2 2 0 0 0 2-2h2Z"/>
  </mask>
  <path stroke="#000" stroke-linejoin="round" stroke-width="4" d="M18.5 14.5a4 4 0 0 1-4 4v-2a2 2 0 0 0 2-2h2Z" mask="url(#b)"/>
  <path stroke="#000" stroke-linecap="square" stroke-width="2" d="M17.5 6.5v7"/>
</svg>
