<svg xmlns="http://www.w3.org/2000/svg" viewBox="0 0 32 32" fill="currentColor">
  <path d="M27.656 17.393c-.904.24-1.835.362-2.77.362-2.846 0-5.52-1.107-7.527-3.115a10.7 10.7 0 0 1-2.753-10.297 1.333 1.333 0 0 0-1.633-1.631 13.352 13.352 0 0 0-5.985 3.443c-5.197 5.197-5.197 13.657 0 18.857a13.247 13.247 0 0 0 9.43 3.907 13.241 13.241 0 0 0 9.426-3.906 13.341 13.341 0 0 0 3.444-5.988 1.334 1.334 0 0 0-1.632-1.632Zm-3.696 5.735a10.595 10.595 0 0 1-7.541 3.124 10.603 10.603 0 0 1-7.544-3.125c-4.158-4.159-4.158-10.927 0-15.086.803-.802 1.73-1.47 2.746-1.977a13.37 13.37 0 0 0 3.854 10.464 13.298 13.298 0 0 0 10.464 3.855 10.714 10.714 0 0 1-1.98 2.745Z"/>
</svg>
