<svg xmlns="http://www.w3.org/2000/svg" viewBox="0 0 1024 1024"><path fill="none"  stroke="currentColor"  stroke-linecap="round" stroke-linejoin="round" stroke-width="96" d="M128 256h768M810.643 255.995v597.336a85.326 85.326 0 0 1-85.331 85.331H298.646a85.345 85.345 0 0 1-60.34-24.992 85.34 85.34 0 0 1-24.993-60.339V255.995m128 0v-85.333a85.333 85.333 0 0 1 85.333-85.334h170.667a85.327 85.327 0 0 1 60.339 24.994 85.32 85.32 0 0 1 24.992 60.34v85.333M426.687 469.328v256.003M597.313 469.328v256.003"/></svg>