<svg xmlns="http://www.w3.org/2000/svg" width="24" height="24" viewBox="0 0 24 24" fill="none" stroke="currentColor">
  <path d="M20.038 16.857C22.59 14.58 24 12 24 12s-4.5-8.25-12-8.25c-1.44.005-2.865.305-4.185.882L8.97 5.789A8.916 8.916 0 0 1 12 5.25c3.18 0 5.818 1.752 7.752 3.685.93.936 1.765 1.963 2.49 3.065-.087.13-.183.274-.293.432a19.78 19.78 0 0 1-2.197 2.633c-.248.247-.506.492-.776.729l1.062 1.063Z"/>
  <path d="M16.946 13.764a5.25 5.25 0 0 0-6.711-6.711l1.234 1.235a3.75 3.75 0 0 1 4.244 4.243l1.233 1.233Zm-4.415 1.949 1.233 1.232a5.25 5.25 0 0 1-6.711-6.71l1.235 1.234a3.75 3.75 0 0 0 4.243 4.244Z"/>
  <path d="M5.025 8.205c-.27.24-.53.483-.777.73A19.702 19.702 0 0 0 1.758 12l.292.432a19.78 19.78 0 0 0 2.198 2.633C6.181 16.998 8.822 18.75 12 18.75c1.074 0 2.085-.2 3.03-.54l1.155 1.158c-1.32.577-2.744.877-4.185.882C4.5 20.25 0 12 0 12s1.409-2.582 3.962-4.857l1.062 1.063.001-.001Zm15.444 13.326-18-18 1.062-1.062 18 18-1.062 1.062Z"/>
</svg>
